<?xml version="1.0" encoding="UTF-8" standalone="no"?>
<svg width="120px" height="43px" viewBox="0 0 120 43" version="1.1" xmlns="http://www.w3.org/2000/svg" xmlns:xlink="http://www.w3.org/1999/xlink" xmlns:sketch="http://www.bohemiancoding.com/sketch/ns">
    <!-- Generator: sketchtool 3.4.4 (395) - http://www.bohemiancoding.com/sketch -->
    <title>splash_logo_fourtime</title>
    <desc>Created with sketchtool.</desc>
    <defs>
        <path id="path-1" d="M0,0.220180761 L119.500647,0.220180761 L119.500647,41.7048266 L0,41.7048266"></path>
        <path id="path-3" d="M0,0.220180761 L119.500647,0.220180761 L119.500647,41.7048266 L0,41.7048266 L0,0.220180761 Z"></path>
    </defs>
    <g id="Page-1" stroke="none" stroke-width="1" fill="none" fill-rule="evenodd" sketch:type="MSPage">
        <g id="Splash-Screen" sketch:type="MSArtboardGroup" transform="translate(-120.000000, -552.000000)">
            <g id="splash_logo_fourtime" sketch:type="MSLayerGroup" transform="translate(120.162640, 552.647587)">
                <path d="M27.8190621,18.5900171 C25.4045858,18.5900171 23.4478264,16.6324806 23.4478264,14.2195585 C23.4478264,11.8058593 25.4045858,9.84858184 27.8190621,9.84858184 C30.2322432,9.84858184 32.1887436,11.8058593 32.1887436,14.2195585 C32.1887436,16.6324806 30.2322432,18.5900171 27.8190621,18.5900171 M25.7827786,29.9606697 C22.8308022,29.9606697 20.4367897,27.5671753 20.4367897,24.6146808 C20.4367897,21.6629634 22.8308022,19.269469 25.7827786,19.269469 C28.7337189,19.269469 31.1274723,21.6629634 31.1274723,24.6146808 C31.1274723,27.5671753 28.7337189,29.9606697 25.7827786,29.9606697 M27.9200862,4.1500447 C28.2311887,4.69246648 28.4117369,5.31777985 28.4117369,5.98712936 C28.4117369,8.03118393 26.7544234,9.68823844 24.7106278,9.68823844 C22.6668323,9.68823844 21.0100368,8.03118393 21.0100368,5.98712936 C21.0100368,4.65438816 21.7161695,3.49053856 22.7732962,2.83880351 C22.1523864,2.77508061 21.5229285,2.74192397 20.8864765,2.74192397 C10.8236977,2.74192397 2.66587095,10.8997507 2.66587095,20.9622705 C2.66587095,26.9910788 5.59582929,32.3339593 10.1077216,35.6506586 C9.77071556,34.8616344 9.58395047,33.9936041 9.58395047,33.0812787 C9.58395047,29.4599527 12.5196076,26.5245546 16.1411926,26.5245546 C19.7617414,26.5245546 22.6979166,29.4599527 22.6979166,33.0812787 C22.6979166,35.7472791 21.1030308,38.0387133 18.8172955,39.0626833 C19.4970064,39.1401352 20.1860427,39.1831352 20.8864765,39.1831352 C30.9497735,39.1831352 39.1076002,31.0253084 39.1076002,20.9622705 C39.1076002,13.3934921 34.4910572,6.90256326 27.9200862,4.1500447" id="Fill-1" fill="#FEFEFE" sketch:type="MSShapeGroup"></path>
                <g id="Group-5">
                    <mask id="mask-2" sketch:name="Clip 4" fill="white">
                        <use xlink:href="#path-1"></use>
                    </mask>
                    <g id="Clip-4"></g>
                    <path d="M41.4887904,20.9618302 C41.4887904,20.9618302 41.4854229,20.8354205 41.478688,20.5903723 C41.4670313,20.3461011 41.4748024,19.9818963 41.428694,19.5099323 C41.3647121,18.5657454 41.2077361,17.1749801 40.7280011,15.470781 C40.2526697,13.7720217 39.4571696,11.7466177 38.093603,9.69271977 C36.740139,7.64400254 34.829229,5.54995398 32.2968912,3.88409225 C31.0327946,3.05439933 29.6246739,2.329098 28.0984326,1.76206778 C26.5732275,1.19192912 24.9216128,0.81218207 23.205498,0.622049506 C22.7765341,0.569983232 22.3444617,0.554182025 21.9087629,0.522061537 C21.4712507,0.520766356 21.0194916,0.490200086 20.585347,0.512477198 C20.363871,0.519471175 20.1421361,0.526724188 19.9193649,0.533718166 C19.6968528,0.543302505 19.4748588,0.568169979 19.2513106,0.584748295 C18.8042141,0.611688059 18.3589309,0.682923011 17.9102802,0.741206154 C17.0171235,0.887302565 16.1182679,1.06810983 15.2352135,1.33957975 C14.7891532,1.45847736 14.3555266,1.6247786 13.914388,1.77320633 C13.6980928,1.85920635 13.4812795,1.94572444 13.2642071,2.03198349 C13.0455806,2.11591121 12.8308396,2.20890521 12.618948,2.31070643 C9.1955257,3.85041754 6.10392878,6.42679149 3.93398262,9.7108523 C3.38767529,10.5288886 2.91467521,11.397955 2.48674742,12.2895576 C2.06166904,13.1840095 1.7200003,14.118094 1.42573519,15.0672026 C1.13587369,16.0183835 0.934861609,16.9962451 0.782289293,17.9808417 C0.638783244,18.9690648 0.581795282,19.9554746 0.569102509,20.9628663 C0.579204921,21.9601556 0.638524208,22.957704 0.781253149,23.9448909 C0.934084501,24.9292285 1.13509658,25.906831 1.42521712,26.85853 C1.71948223,27.8076386 2.06115096,28.7414641 2.48648839,29.635398 C2.91415714,30.5275186 3.38767529,31.3960669 3.93398262,32.2143623 C6.10418781,35.4984231 9.19448956,38.0768693 12.618948,39.6158033 C12.8308396,39.7173455 13.0455806,39.8105985 13.2642071,39.8940082 C13.4815385,39.9805263 13.6983518,40.0667853 13.914647,40.1530444 C14.3555266,40.3014721 14.7894122,40.4680324 15.2357316,40.58693 C16.118786,40.8583999 17.0176415,41.0384301 17.9107983,41.1847855 C18.359449,41.2428096 18.8055093,41.3143036 19.2502745,41.3409843 C19.4735636,41.3573036 19.6934854,41.3821711 19.9172926,41.3917554 C20.1413589,41.3987494 20.3649072,41.4062615 20.5876783,41.4129964 C21.0272627,41.4350145 21.4696965,41.4052253 21.9064315,41.4036711 C22.3423894,41.3715506 22.7778293,41.3554904 23.2065342,41.3034241 C24.9226489,41.1130325 26.5745227,40.7330264 28.0997278,40.1628877 C29.62571,39.5958575 31.0340898,38.8705562 32.2979273,38.0403452 C34.8302651,36.3742244 36.740398,34.2793988 38.0943802,32.2311996 C39.4574286,30.1767836 40.2529287,28.1516387 40.7282601,26.4526203 C41.2077361,24.7486802 41.3647121,23.3579149 41.428694,22.413728 C41.4748024,21.9417641 41.4670313,21.5775592 41.478688,21.3332881 C41.4854229,21.0882398 41.4887904,20.9618302 41.4887904,20.9618302 M41.4887904,20.9618302 C41.4887904,20.9618302 41.485941,21.0882398 41.4805012,21.3332881 C41.4701398,21.5775592 41.4799832,21.9417641 41.435947,22.4142461 C41.3768868,23.3589511 41.2271638,24.7517887 40.755718,26.4603914 C40.2881576,28.1643314 39.5019828,30.1969884 38.1451512,32.2646153 C36.7994582,34.3293928 34.8859579,36.4275859 32.3676081,38.1444778 C31.107138,38.9961887 29.6982401,39.7458395 28.165264,40.3382552 C26.633583,40.9337794 24.9697935,41.3396892 23.2347691,41.5552073 C22.8014016,41.6137494 22.3610401,41.6357675 21.9196424,41.6738458 C21.4761724,41.6808398 21.0324434,41.7171049 20.5804253,41.7007856 C20.3573951,41.696641 20.1341059,41.6922374 19.9095216,41.6883519 C19.6849372,41.6816169 19.4569853,41.6590808 19.2295516,41.6458699 C18.7731298,41.6241109 18.3211116,41.5577976 17.8639128,41.5044362 C16.9552138,41.3676651 16.0384847,41.1961831 15.1365207,40.9317072 C14.680617,40.8164361 14.2371471,40.6537613 13.785647,40.5076649 C13.564171,40.4229601 13.342177,40.3377372 13.1194059,40.2530323 C12.8958577,40.1703998 12.6756769,40.0784419 12.4583456,39.9776769 C10.7013031,39.2171466 9.02611604,38.1859235 7.50350131,36.9303751 C5.98477213,35.6691279 4.63441647,34.1690493 3.51123555,32.4954165 C2.94731377,31.6595067 2.45669922,30.7715307 2.0134883,29.8592052 C1.57286774,28.9437713 1.21669298,27.9871507 0.909994135,27.0142107 C0.607439865,26.0389395 0.395289226,25.0362104 0.233391607,24.0251922 C0.0813373636,23.0118426 0.0155421714,21.9873544 2.11758237e-22,20.9628663 C-0.00103614476,16.8581789 1.25787974,12.7742143 3.50994037,9.42902093 C4.07671156,8.59621958 4.6854466,7.79527968 5.35686841,7.05573135 C6.03191672,6.32110472 6.73804937,5.61885761 7.50168806,4.99276714 C9.02430278,3.73721873 10.6997489,2.70625469 12.4570504,1.94520636 C12.6743817,1.84495936 12.8943035,1.75248344 13.1183698,1.67010993 C13.3406228,1.58514606 13.5626168,1.50018219 13.7843518,1.41547736 C14.2358519,1.26963998 14.6793218,1.10644718 15.1352255,0.991176077 C16.0371896,0.726959163 16.9539186,0.555218169 17.8631357,0.418447061 C19.6903769,0.178061477 21.4909375,0.150085568 23.233992,0.367935004 C24.9692755,0.583453114 26.6330649,0.98962186 28.1650049,1.58514606 C29.6977221,2.17730279 31.1068789,2.92695352 32.367349,3.77892355 C34.8859579,5.49529735 36.7991992,7.59400856 38.1448922,9.65878603 C39.5019828,11.7261539 40.2881576,13.7595879 40.755718,15.463269 C41.2271638,17.1718717 41.3768868,18.5647093 41.435947,19.5094143 C41.4799832,19.9813782 41.4701398,20.3461011 41.4805012,20.5903723 C41.485941,20.8354205 41.4887904,20.9618302 41.4887904,20.9618302" id="Fill-3" fill="#FEFEFE" sketch:type="MSShapeGroup" mask="url(#mask-2)"></path>
                </g>
                <path d="M46.7817028,20.0116854 L49.3067875,20.0116854 L49.3067875,21.7899689 L46.7817028,21.7899689 L46.7817028,26.9292469 L44.8257205,26.9292469 L44.8257205,14.4812628 L50.0004865,14.4812628 L50.0004865,16.2595462 L46.7817028,16.2595462 L46.7817028,20.0116854 Z" id="Fill-6" fill="#FEFEFE" sketch:type="MSShapeGroup"></path>
                <path d="M52.3837489,24.0660681 C52.3837489,24.9553393 52.7748936,25.2931225 53.3973575,25.2931225 C54.0195625,25.2931225 54.4109661,24.9553393 54.4109661,24.0660681 L54.4109661,17.344338 C54.4109661,16.4550667 54.0195625,16.1172835 53.3973575,16.1172835 C52.7748936,16.1172835 52.3837489,16.4550667 52.3837489,17.344338 L52.3837489,24.0660681 Z M50.4275076,17.4686753 C50.4275076,15.4772051 51.4768632,14.3390001 53.3973575,14.3390001 C55.3178518,14.3390001 56.3669484,15.4772051 56.3669484,17.4686753 L56.3669484,23.9417307 C56.3669484,25.9332009 55.3178518,27.0714059 53.3973575,27.0714059 C51.4768632,27.0714059 50.4275076,25.9332009 50.4275076,23.9417307 L50.4275076,17.4686753 Z" id="Fill-8" fill="#FEFEFE" sketch:type="MSShapeGroup"></path>
                <path d="M59.1417182,14.4812369 L59.1417182,24.0839675 C59.1417182,24.9729797 59.5331219,25.2931484 60.1553268,25.2931484 C60.7775317,25.2931484 61.1689354,24.9729797 61.1689354,24.0839675 L61.1689354,14.4812369 L63.0184538,14.4812369 L63.0184538,23.9593711 C63.0184538,25.9511003 62.0224596,27.0890463 60.1019653,27.0890463 C58.181471,27.0890463 57.1854769,25.9511003 57.1854769,23.9593711 L57.1854769,14.4812369 L59.1417182,14.4812369 Z" id="Fill-10" fill="#FEFEFE" sketch:type="MSShapeGroup"></path>
                <path d="M65.9533079,16.2595721 L65.9533079,20.0826872 L66.7177237,20.0826872 C67.4469106,20.0826872 67.8914167,19.7627776 67.8914167,18.7667834 L67.8914167,17.539988 C67.8914167,16.6507168 67.5891215,16.2595721 66.8956816,16.2595721 L65.9533079,16.2595721 Z M68.086989,26.9290137 C67.9802661,26.6091041 67.9092902,26.4135317 67.9092902,25.3999231 L67.9092902,23.4436818 C67.9092902,22.2878623 67.5181455,21.8612297 66.6288743,21.8612297 L65.9533079,21.8612297 L65.9533079,26.9290137 L63.9970666,26.9290137 L63.9970666,14.4812887 L66.949043,14.4812887 C68.9762603,14.4812887 69.847658,15.4236623 69.847658,17.3441566 L69.847658,18.3222773 C69.847658,19.6026932 69.4386399,20.4383439 68.5672421,20.8473621 C69.5453628,21.2566393 69.8655315,22.1990129 69.8655315,23.4970433 L69.8655315,25.4175376 C69.8655315,26.022128 69.883146,26.4668932 70.0787183,26.9290137 L68.086989,26.9290137 Z" id="Fill-12" fill="#FEFEFE" sketch:type="MSShapeGroup"></path>
                <path d="M69.8658941,14.4812369 L75.9120579,14.4812369 L75.9120579,16.2595203 L73.8669671,16.2595203 L73.8669671,26.929221 L71.9112439,26.929221 L71.9112439,16.2595203 L69.8658941,16.2595203 L69.8658941,14.4812369 Z" id="Fill-14" fill="#FEFEFE" sketch:type="MSShapeGroup"></path>
                <mask id="mask-4" sketch:name="Clip 17" fill="white">
                    <use xlink:href="#path-3"></use>
                </mask>
                <g id="Clip-17"></g>
                <path d="M76.766152,14.4811592 L78.7223933,14.4811592 L78.7223933,26.9291433 L76.766152,26.9291433 L76.766152,14.4811592 Z" id="Fill-16" fill="#FEFEFE" sketch:type="MSShapeGroup" mask="url(#mask-4)"></path>
                <path d="M84.2882003,23.319189 L85.6217186,14.4811333 L88.3426347,14.4811333 L88.3426347,26.9291174 L86.4933754,26.9291174 L86.4933754,18.0022122 L85.1417245,26.9291174 L83.2922061,26.9291174 L81.8340914,18.1268086 L81.8340914,26.9291174 L80.127302,26.9291174 L80.127302,14.4811333 L82.8477,14.4811333 L84.2882003,23.319189 Z" id="Fill-18" fill="#FEFEFE" sketch:type="MSShapeGroup" mask="url(#mask-4)"></path>
                <path d="M91.7223317,19.7272119 L94.4072418,19.7272119 L94.4072418,21.5054953 L91.7223317,21.5054953 L91.7223317,25.1509116 L95.1009407,25.1509116 L95.1009407,26.9291951 L89.7660904,26.9291951 L89.7660904,14.481211 L95.1009407,14.481211 L95.1009407,16.2594944 L91.7223317,16.2594944 L91.7223317,19.7272119 Z" id="Fill-19" fill="#FEFEFE" sketch:type="MSShapeGroup" mask="url(#mask-4)"></path>
                <path d="M98.1956979,26.9291433 L96.3109506,26.9291433 L96.3109506,25.0441369 L98.1956979,25.0441369 L98.1956979,26.9291433 Z" id="Fill-20" fill="#FEFEFE" sketch:type="MSShapeGroup" mask="url(#mask-4)"></path>
                <path d="M104.811249,17.5399621 L104.811249,18.5002093 L104.419845,18.5002093 L104.419845,17.5220886 C104.419845,16.0106124 103.851002,14.74807 102.214929,14.74807 C100.561242,14.74807 99.9921398,16.0106124 99.9921398,17.5220886 L99.9921398,23.888162 C99.9921398,25.3998972 100.561242,26.6445661 102.214929,26.6445661 C103.851002,26.6445661 104.419845,25.3998972 104.419845,23.888162 L104.419845,22.5191557 L104.811249,22.5191557 L104.811249,23.8705475 C104.811249,25.5954695 104.099936,27.0180963 102.197056,27.0180963 C100.312049,27.0180963 99.6009951,25.5954695 99.6009951,23.8705475 L99.6009951,17.5399621 C99.6009951,15.8150401 100.312049,14.3924134 102.197056,14.3924134 C104.099936,14.3924134 104.811249,15.8150401 104.811249,17.5399621" id="Fill-21" fill="#FEFEFE" sketch:type="MSShapeGroup" mask="url(#mask-4)"></path>
                <path d="M106.216469,23.8882397 C106.216469,25.7198846 106.981143,26.6622583 108.457132,26.6622583 C109.950734,26.6622583 110.733283,25.7198846 110.733283,23.8882397 L110.733283,17.5221663 C110.733283,15.6905214 109.950734,14.7478887 108.457132,14.7478887 C106.981143,14.7478887 106.216469,15.6905214 106.216469,17.5221663 L106.216469,23.8882397 Z M105.825324,17.5400398 C105.825324,15.4770756 106.73221,14.392232 108.457132,14.392232 C110.217542,14.392232 111.124427,15.4770756 111.124427,17.5400398 L111.124427,23.8706253 C111.124427,25.9333304 110.217542,27.018174 108.457132,27.018174 C106.73221,27.018174 105.825324,25.9333304 105.825324,23.8706253 L105.825324,17.5400398 Z" id="Fill-22" fill="#FEFEFE" sketch:type="MSShapeGroup" mask="url(#mask-4)"></path>
                <path d="M116.050985,26.8936035 L115.60622,26.8936035 L112.529906,15.0680834 L112.529906,26.9290915 L112.174249,26.9290915 L112.174249,14.4813664 L112.77884,14.4813664 L115.837539,26.289013 L118.895979,14.4813664 L119.50057,14.4813664 L119.50057,26.9290915 L119.109684,26.9290915 L119.109684,15.0680834 L116.050985,26.8936035 Z" id="Fill-23" fill="#FEFEFE" sketch:type="MSShapeGroup" mask="url(#mask-4)"></path>
            </g>
        </g>
    </g>
</svg>