<?xml version="1.0" encoding="UTF-8" standalone="no"?>
<svg width="244px" height="162px" viewBox="0 0 244 162" version="1.1" xmlns="http://www.w3.org/2000/svg" xmlns:xlink="http://www.w3.org/1999/xlink" xmlns:sketch="http://www.bohemiancoding.com/sketch/ns">
    <!-- Generator: sketchtool 3.4.4 (395) - http://www.bohemiancoding.com/sketch -->
    <title>splash_logo_teste</title>
    <desc>Created with sketchtool.</desc>
    <defs>
        <path id="path-1" d="M0,161.073876 L242.584626,161.073876 L242.584626,0.249506592 L0,0.249506592 L0,161.073876 Z"></path>
        <path id="path-3" d="M0,161.073876 L242.584626,161.073876 L242.584626,0.249506592 L0,0.249506592 L0,161.073876 Z"></path>
        <path id="path-5" d="M0,161.073876 L242.584626,161.073876 L242.584626,0.249506592 L0,0.249506592 L0,161.073876 Z"></path>
        <path id="path-7" d="M0,161.073876 L242.584626,161.073876 L242.584626,0.249506592 L0,0.249506592 L0,161.073876 Z"></path>
    </defs>
    <g id="Page-1" stroke="none" stroke-width="1" fill="none" fill-rule="evenodd" sketch:type="MSPage">
        <g id="Splash-Screen" sketch:type="MSArtboardGroup" transform="translate(-58.000000, -240.000000)">
            <g id="splash_logo_teste" sketch:type="MSLayerGroup" transform="translate(58.905015, 239.963062)">
                <g id="Group-10">
                    <path d="M9.99226525,52.6986346 L9.59010695,52.6986346 C4.29151338,52.6986346 0.000421108172,57.0244683 0.000421108172,62.2872677 L0.000421108172,104.029615 C0.000421108172,109.303995 4.29151338,113.627723 9.59010695,113.627723 L9.99226525,113.627723 C15.289806,113.627723 19.5819511,109.303995 19.5819511,104.029615 L19.5819511,62.2872677 C19.5819511,57.0244683 15.2561174,52.6986346 9.99226525,52.6986346" id="Fill-1" fill="#FEFEFE" sketch:type="MSShapeGroup"></path>
                    <g id="Group-5">
                        <mask id="mask-2" sketch:name="Clip 4" fill="white">
                            <use xlink:href="#path-1"></use>
                        </mask>
                        <g id="Clip-4"></g>
                        <path d="M68.5869407,54.2452597 L24.1747674,54.2452597 L24.1747674,120.125528 C24.1747674,124.995644 28.1310786,128.918266 32.9927725,128.918266 L42.4150678,128.918266 L42.4150678,151.4844 C42.4150678,156.772466 46.7082656,161.074086 52.0047537,161.074086 L52.4079647,161.074086 C57.7065583,161.074086 61.9965978,156.740883 61.9965978,151.4844 L61.9965978,128.918266 L68.5869407,128.918266 L68.5869407,54.2452597 Z" id="Fill-3" fill="#FEFEFE" sketch:type="MSShapeGroup" mask="url(#mask-2)"></path>
                    </g>
                    <g id="Group-8">
                        <mask id="mask-4" sketch:name="Clip 7" fill="white">
                            <use xlink:href="#path-3"></use>
                        </mask>
                        <g id="Clip-7"></g>
                        <path d="M68.5869407,9.21437318 C61.7186664,9.21647872 55.2199145,10.5524444 49.4244133,12.9327583 L41.6781285,0.999605522 C41.2096457,0.227924798 40.2031971,0.0184234825 39.4662578,0.525858829 C38.7282658,0.999605522 38.5261338,2.0007902 38.9946167,2.70509362 L46.472445,14.2697768 C32.9927725,20.8790695 23.8747278,33.350188 23.8747278,47.6373355 C23.8747278,48.5121878 23.9410523,49.3765123 24.0063241,50.2513645 L68.5869407,50.2513645 L68.5869407,9.21437318 Z M52.2058328,30.6414097 C52.2058328,33.0164598 50.2961072,34.9335548 47.9157933,34.9335548 C45.5333738,34.9335548 43.6236483,33.0164598 43.6236483,30.6414097 C43.6236483,28.2516208 45.5333738,26.3819006 47.9157933,26.3819006 C50.2961072,26.3819006 52.2058328,28.2516208 52.2058328,30.6414097 L52.2058328,30.6414097 Z" id="Fill-6" fill="#FEFEFE" sketch:type="MSShapeGroup" mask="url(#mask-4)"></path>
                    </g>
                    <mask id="mask-6" sketch:name="Clip 9" fill="white">
                        <use xlink:href="#path-5"></use>
                    </mask>
                    <g id="Clip-9"></g>
                    <text id="Teste-" sketch:type="MSTextLayer" mask="url(#mask-6)" font-family="Bebas Neue" font-size="61.9869123" font-weight="bold" fill="#FEFEFE">
                        <tspan x="73.7367778" y="49.3342051">Teste </tspan>
                    </text>
                </g>
                <text id="Android-" sketch:type="MSTextLayer" font-family="Bebas Neue" font-size="61.9869123" font-weight="260" fill="#FEFEFE">
                    <tspan x="73.7367778" y="103.057607">Android </tspan>
                </text>
                <g id="Group-12">
                    <mask id="mask-8" sketch:name="Clip 11" fill="white">
                        <use xlink:href="#path-7"></use>
                    </mask>
                    <g id="Clip-11"></g>
                    <text id="Fourtime" sketch:type="MSTextLayer" mask="url(#mask-8)" font-family="Bebas Neue" font-size="61.9869123" font-weight="260" fill="#FEFEFE">
                        <tspan x="73.7367778" y="156.777534">Fourtime</tspan>
                    </text>
                </g>
            </g>
        </g>
    </g>
</svg>